<svg width="44" height="28" viewBox="0 0 44 28" fill="none" xmlns="http://www.w3.org/2000/svg">
<path d="M28.5469 1.81562H39.457V4.4625H28.5469V1.81562ZM17.6148 12.2883C20.0266 11.1344 21.2898 9.37891 21.2898 6.66641C21.2898 1.30156 17.2977 0 12.6875 0H0V26.9281H13.043C17.932 26.9281 22.5203 24.5766 22.5203 19.1078C22.5203 15.7281 20.9234 13.2289 17.6148 12.2883V12.2883ZM5.91719 4.59375H11.468C13.6063 4.59375 15.5258 5.18984 15.5258 7.67266C15.5258 9.95859 14.0328 10.8773 11.9164 10.8773H5.91719V4.59375ZM12.2336 22.3562H5.91172V14.9406H12.3594C14.9625 14.9406 16.6086 16.0289 16.6086 18.7852C16.6086 21.4977 14.6453 22.3562 12.2336 22.3562V22.3562ZM43.7227 17.4617C43.7227 11.6922 40.3484 6.88516 34.2453 6.88516C28.3117 6.88516 24.2758 11.3531 24.2758 17.2102C24.2758 23.2805 28.0984 27.4477 34.2453 27.4477C38.8992 27.4477 41.9125 25.3531 43.3617 20.8852H38.6422C38.1281 22.5531 36.0391 23.4281 34.4148 23.4281C31.2758 23.4281 29.6352 21.5906 29.6352 18.468H43.6844C43.7008 18.1453 43.7227 17.8062 43.7227 17.4617V17.4617ZM29.6352 15.0883C29.8047 12.5234 31.5164 10.9211 34.0758 10.9211C36.7664 10.9211 38.1117 12.5016 38.3469 15.0883H29.6352Z" fill="#D4D4D4"/>
</svg>
