<svg width="39" height="55" viewBox="0 0 39 55" fill="none" xmlns="http://www.w3.org/2000/svg">
<path d="M19.1844 9.14172e-05C8.0325 0.0343258 0 9.07351 0 19.1502C0 24.0043 1.79813 28.4296 4.76438 31.8159C6.57234 33.8765 9.39531 38.1848 10.4759 41.8182C10.4793 41.8455 10.4862 41.8747 10.4896 41.9037H28.0115C28.0149 41.8747 28.0218 41.8473 28.0252 41.8182C29.1052 38.1848 31.9287 33.8765 33.7367 31.8159C36.7062 28.5237 38.5 24.1049 38.5 19.1502C38.5 8.59664 29.8484 -0.032393 19.1844 9.14172e-05ZM19.25 10.4998C14.4233 10.4998 10.5 14.4252 10.5 19.1513C10.5 20.2112 9.7125 20.9987 8.75 20.9987C7.7875 20.9987 7 20.2112 7 19.2487C7 12.4937 12.4961 7.09711 19.25 7.09711C20.2173 7.09711 21 7.88012 21 8.84711C21 9.81409 20.2125 10.4998 19.25 10.4998Z" fill="#D4D4D4"/>
<path d="M12.1774 50.4594C11.8486 49.8852 11.6765 49.2133 11.6765 48.5246L11.667 44.2371H26.8337L26.8215 48.5246C26.8215 49.1075 26.5931 49.9751 26.3146 50.4605L24.6955 53.2692C24.1979 54.131 23.0678 54.8311 22.1731 54.8311H16.3273C15.4297 54.8311 14.2997 54.1306 13.8021 53.2692L12.1774 50.4594Z" fill="white" fill-opacity="0.25"/>
</svg>
