<svg width="42" height="47" viewBox="0 0 42 47" fill="none" xmlns="http://www.w3.org/2000/svg">
<path d="M30.4512 37.5433C29.3908 37.52 28.5379 36.6333 28.5379 35.56C28.5148 34.4867 29.3677 33.6023 30.4281 33.579H30.4512C31.5346 33.579 32.4105 34.4657 32.4105 35.56C32.4105 36.6567 31.5346 37.5433 30.4512 37.5433ZM21.0461 28.9567C19.9857 29.0057 19.1098 28.1633 19.0637 27.0923C19.0637 26.019 19.8935 25.1323 20.9539 25.0833C21.9912 25.0833 22.8441 25.9023 22.8672 26.95C22.9133 28.0257 22.0834 28.9123 21.0461 28.9567ZM21.0461 37.4267C19.9857 37.4757 19.1098 36.6333 19.0637 35.56C19.0637 34.4867 19.8935 33.6023 20.9539 33.5533C21.9912 33.5533 22.8441 34.3723 22.8672 35.4223C22.9133 36.4957 22.0834 37.3823 21.0461 37.4267ZM11.5719 28.9567C10.5115 29.0057 9.63556 28.1633 9.58946 27.0923C9.58946 26.019 10.4193 25.1323 11.4797 25.0833C12.517 25.0833 13.3699 25.9023 13.393 26.95C13.4391 28.0257 12.6092 28.9123 11.5719 28.9567ZM11.5488 37.4267C10.4885 37.4757 9.61251 36.6333 9.56641 35.56C9.56641 34.4867 10.3963 33.6023 11.4566 33.5533C12.494 33.5533 13.3469 34.3723 13.3699 35.4223C13.416 36.4957 12.5862 37.3823 11.5488 37.4267ZM28.5609 27.069C28.5609 25.9957 29.3908 25.1323 30.4512 25.109C31.4885 25.109 32.3183 25.9467 32.3644 26.9757C32.3875 28.049 31.5576 28.9357 30.5203 28.9567C29.4599 28.98 28.584 28.1633 28.5609 27.0923V27.069ZM0 16.933V34.6967C0 42.07 4.65642 46.6667 11.9638 46.6667H30.0132C37.3897 46.6667 42 42.1633 42 34.839V16.933H0Z" fill="#D4D4D4"/>
<path d="M0.0078125 16.9328C0.0377796 15.5631 0.153038 12.8448 0.369723 11.9698C1.4762 7.04877 5.23361 3.92211 10.6046 3.47644H31.3972C36.7221 3.94544 40.5256 7.09311 41.6321 11.9698C41.8465 12.8214 41.9617 15.5608 41.9917 16.9328H0.0078125Z" fill="white" fill-opacity="0.25"/>
<path d="M12.378 10.71C13.3923 10.71 14.153 9.94233 14.153 8.91333V1.799C14.153 0.77 13.3923 0 12.378 0C11.3637 0 10.603 0.77 10.603 1.799V8.91333C10.603 9.94233 11.3637 10.71 12.378 10.71Z" fill="#D4D4D4"/>
<path d="M29.6214 10.71C30.6126 10.71 31.3964 9.94233 31.3964 8.91333V1.799C31.3964 0.77 30.6126 0 29.6214 0C28.6071 0 27.8464 0.77 27.8464 1.799V8.91333C27.8464 9.94233 28.6071 10.71 29.6214 10.71Z" fill="#D4D4D4"/>
</svg>
