<svg width="46" height="46" viewBox="0 0 46 46" fill="none" xmlns="http://www.w3.org/2000/svg">
<path d="M22.75 0C10.2047 0 0 10.2047 0 22.75C0 35.2953 10.2047 45.5 22.75 45.5C35.2953 45.5 45.5 35.2953 45.5 22.75C45.5 10.2047 35.2953 0 22.75 0ZM37.7945 10.4891C40.5016 13.7977 42.1422 18.0086 42.1805 22.5969C41.5406 22.4602 35.1148 21.1586 28.6508 21.9734C28.5141 21.6398 28.3773 21.3062 28.2352 20.9727C27.8305 20.0266 27.3984 19.0805 26.9445 18.1562C34.125 15.2195 37.3844 11.0469 37.7945 10.4891ZM22.75 3.34687C27.6883 3.34687 32.2 5.20078 35.6289 8.24141C35.2789 8.73906 32.3531 12.6711 25.4461 15.2633C22.2633 9.41172 18.7359 4.61016 18.1945 3.88828C19.6875 3.52734 21.2133 3.34687 22.75 3.34687V3.34687ZM14.4867 5.19531C15.0008 5.89531 18.4734 10.7133 21.6891 16.4336C12.6 18.8453 4.59375 18.8125 3.72422 18.8016C4.9875 12.7695 9.05078 7.76016 14.4867 5.19531ZM3.31953 22.7773C3.31953 22.5805 3.325 22.3781 3.33047 22.1813C4.17812 22.1977 13.5953 22.318 23.3023 19.4141C23.8602 20.5023 24.3906 21.607 24.8773 22.7117C24.6203 22.7828 24.3633 22.8594 24.1117 22.9414C14.0875 26.1898 8.75547 35.0219 8.3125 35.7711C5.21172 32.3258 3.31953 27.7703 3.31953 22.7773ZM22.75 42.2078C18.2547 42.2078 14.1148 40.6766 10.8227 38.1062C11.1727 37.3898 15.1047 29.7938 26.0641 25.9711L26.1898 25.9273C28.9188 33.0148 30.0453 38.9594 30.3352 40.6656C27.938 41.6902 25.357 42.215 22.75 42.2078V42.2078ZM33.6055 38.8883C33.4086 37.707 32.375 32.0195 29.832 25.0359C35.9242 24.0625 41.2727 25.6594 41.9344 25.8672C41.0703 31.2703 37.9695 35.9406 33.6055 38.8883V38.8883Z" fill="#D4D4D4"/>
</svg>
