<svg width="45" height="47" viewBox="0 0 45 47" fill="none" xmlns="http://www.w3.org/2000/svg">
<path d="M15.4811 43.8045V36.6698C15.4811 34.8485 16.9684 33.3721 18.803 33.3721H25.5094C26.3904 33.3721 27.2354 33.7195 27.8583 34.3379C28.4813 34.9564 28.8313 35.7952 28.8313 36.6698V43.8045C28.8257 44.5617 29.1248 45.2897 29.6622 45.8271C30.1996 46.3645 30.9308 46.6667 31.6935 46.6667H36.2689C38.4058 46.6722 40.4571 45.8333 41.9701 44.3352C43.483 42.8371 44.3333 40.803 44.3333 38.6816V18.356C44.3333 16.6424 43.5682 15.017 42.2441 13.9176L26.6794 1.57703C23.9719 -0.586689 20.0926 -0.516828 17.4659 1.74295L2.25636 13.9176C0.869728 14.9846 0.0409553 16.6148 0 18.356V38.6609C0 43.0823 3.61056 46.6667 8.0644 46.6667H12.5353C14.1195 46.6667 15.407 45.3978 15.4185 43.8252L15.4811 43.8045Z" fill="#F9FAFB"/>
</svg>
