<svg width="47" height="43" viewBox="0 0 47 43" fill="none" xmlns="http://www.w3.org/2000/svg">
<path d="M46.6667 30.1948C46.6667 36.7048 41.44 41.9781 34.93 42.0014H34.9067H11.7833C5.29667 42.0014 0 36.7514 0 30.2414V30.2181C0 30.2181 0.014 19.8908 0.0326667 14.6968C0.035 13.7214 1.155 13.1754 1.918 13.7821C7.462 18.1804 17.3763 26.2001 17.5 26.3051C19.1567 27.6328 21.2567 28.3818 23.4033 28.3818C25.55 28.3818 27.65 27.6328 29.3067 26.2794C29.4303 26.1978 39.123 18.4184 44.751 13.9478C45.5163 13.3388 46.641 13.8848 46.6433 14.8578C46.6667 20.0121 46.6667 30.1948 46.6667 30.1948Z" fill="white" fill-opacity="0.25"/>
<path d="M45.4443 6.23933C43.4236 2.43133 39.4476 0 35.0703 0H11.7836C7.4063 0 3.4303 2.43133 1.40963 6.23933C0.956965 7.091 1.17163 8.15267 1.9253 8.75467L19.2503 22.6123C20.4636 23.5923 21.9336 24.08 23.4036 24.08C23.413 24.08 23.42 24.08 23.427 24.08C23.434 24.08 23.4433 24.08 23.4503 24.08C24.9203 24.08 26.3903 23.5923 27.6036 22.6123L44.9286 8.75467C45.6823 8.15267 45.897 7.091 45.4443 6.23933Z" fill="#D4D4D4"/>
</svg>
