<svg width="54" height="44" viewBox="0 0 54 44" fill="none" xmlns="http://www.w3.org/2000/svg">
<circle cx="38.8333" cy="8" r="3.5" fill="white" fill-opacity="0.25"/>
<path fill-rule="evenodd" clip-rule="evenodd" d="M46.9253 7.22995C49.1256 6.96628 51.2186 6.38295 53.1669 5.51962L53.1623 5.52662C51.7037 7.70804 49.8683 9.61222 47.742 11.1499C47.763 11.6166 47.7746 12.0879 47.7746 12.5546C47.7746 26.9186 36.8429 43.4806 16.8463 43.4806C10.9391 43.4872 5.15506 41.7917 0.186279 38.597C1.04746 38.6982 1.91384 38.7489 2.78095 38.7486C7.67602 38.7558 12.4312 37.1162 16.2816 34.0936C14.0134 34.052 11.815 33.3022 9.99414 31.9491C8.17327 30.596 6.82111 28.7074 6.12695 26.5476C7.7564 26.8581 9.43511 26.7943 11.0363 26.361C8.57595 25.8638 6.36339 24.5307 4.77404 22.5879C3.18469 20.6452 2.31644 18.2123 2.31661 15.7023V15.5623C3.82598 16.4013 5.51392 16.8677 7.23995 16.9226C5.75166 15.9287 4.5317 14.5828 3.68833 13.0043C2.84496 11.4258 2.40424 9.66361 2.40528 7.87395C2.40528 5.88595 2.94195 4.01928 3.87528 2.40928C6.60491 5.76733 10.0101 8.51389 13.8699 10.4707C17.7297 12.4276 21.9579 13.5509 26.2799 13.768C25.7329 11.4364 25.9709 8.98939 26.957 6.80692C27.9431 4.62446 29.6222 2.82862 31.7335 1.69821C33.8448 0.567796 36.2703 0.166067 38.6334 0.555388C40.9964 0.94471 43.1648 2.1033 44.8019 3.85128C47.2364 3.3734 49.5709 2.48159 51.7039 1.21462C50.8941 3.73337 49.1956 5.87146 46.9253 7.22995ZM38.8333 11.5C40.7662 11.5 42.3333 9.93297 42.3333 7.99997C42.3333 6.06698 40.7662 4.49997 38.8333 4.49997C36.9003 4.49997 35.3333 6.06698 35.3333 7.99997C35.3333 9.93297 36.9003 11.5 38.8333 11.5Z" fill="#D4D4D4"/>
</svg>
