<svg width="77" height="78" viewBox="0 0 77 78" fill="none" xmlns="http://www.w3.org/2000/svg">
<path d="M76.976 22.2964L75.7392 26.8978C75.6982 27.0493 75.6088 27.183 75.4844 27.2784C75.36 27.3738 75.2077 27.4254 75.0507 27.4253H53.9859C53.8289 27.4252 53.6761 27.477 53.5517 27.5725C53.4273 27.6681 53.3379 27.802 53.2974 27.9536L53.0263 28.964L51.3675 35.1403L48.6224 45.3605L45.8706 55.6031L40.2657 76.4733C40.2294 76.6098 40.1531 76.7327 40.0467 76.8264C39.9403 76.9195 39.8084 76.9792 39.668 76.9973C39.5276 77.0155 39.385 76.9913 39.2584 76.9284C39.1316 76.865 39.0267 76.7658 38.9567 76.6424L35.6102 70.7898C35.5172 70.6263 35.4923 70.4325 35.5409 70.2504L39.4757 55.6031L44.9728 35.1411L46.6315 28.9648L47.0442 27.4245L47.0717 27.3198L42.3963 22.6136C42.2972 22.5137 42.2299 22.3867 42.2028 22.2485C42.1758 22.1104 42.1903 21.9673 42.2444 21.8374C42.2984 21.7075 42.3898 21.5965 42.5068 21.5183C42.6239 21.4402 42.7615 21.3985 42.9022 21.3984H76.2875C76.397 21.3984 76.5046 21.4236 76.6029 21.472C76.7007 21.5205 76.7864 21.5908 76.853 21.6776C76.9196 21.7644 76.9653 21.8654 76.9867 21.9727C77.0076 22.0799 77.0039 22.1907 76.976 22.2964Z" fill="#E11D48"/>
<path d="M58.9907 35.6683L55.3111 49.3649C55.2729 49.5069 55.2799 49.6569 55.3307 49.7948C55.3815 49.9327 55.4737 50.0515 55.5944 50.1349L61.6691 54.2984C61.7958 54.3836 61.8918 54.5075 61.943 54.6519C61.9938 54.7963 61.9971 54.9528 61.9519 55.0991C61.9072 55.2454 61.8163 55.3735 61.6929 55.4638C61.5699 55.5547 61.4208 55.6031 61.2676 55.6027H48.1776C48.0681 55.6027 47.9605 55.5775 47.8622 55.5291C47.7644 55.4806 47.6787 55.4103 47.6121 55.3236C47.5455 55.2365 47.4998 55.1359 47.4784 55.0283C47.4574 54.9212 47.4607 54.8103 47.4891 54.7046L49.7856 46.1565L52.7445 35.1438L54.264 29.4958C54.3045 29.3443 54.3939 29.2104 54.5183 29.1149C54.6427 29.0194 54.7955 28.9676 54.952 28.9675H74.2556C74.3646 28.9676 74.4727 28.9928 74.571 29.0412C74.6688 29.0896 74.7545 29.1599 74.8211 29.2467C74.8877 29.3336 74.9334 29.4345 74.9543 29.5418C74.9758 29.6491 74.972 29.7598 74.9436 29.8655L73.6677 34.6163C73.6272 34.7677 73.5378 34.9014 73.4129 34.9968C73.2886 35.0922 73.1362 35.1438 72.9797 35.1438H59.6791C59.5226 35.1437 59.3708 35.1949 59.2464 35.2897C59.122 35.3845 59.0321 35.5175 58.9907 35.6683Z" fill="#E11D48"/>
<path d="M29.9528 49.5768L29.9251 49.6793L34.6021 54.3883C34.7007 54.488 34.7677 54.6147 34.7947 54.7525C34.8217 54.89 34.8076 55.0325 34.7539 55.162C34.7004 55.292 34.6098 55.4028 34.4934 55.4811C34.3771 55.5593 34.2403 55.6017 34.1 55.6027H0.712542C0.603261 55.6027 0.495456 55.5775 0.397458 55.5291C0.29946 55.4806 0.21389 55.4107 0.14736 55.3236C0.0808287 55.237 0.0351169 55.1364 0.0137549 55.0292C-0.00760713 54.9221 -0.00404759 54.8112 0.0241585 54.7055L3.33519 42.3838C3.37599 42.2324 3.46554 42.0987 3.58997 42.0033C3.71441 41.908 3.8668 41.8563 4.02357 41.8563H17.3247C17.4815 41.8561 17.6339 41.8042 17.7583 41.7087C17.8828 41.6132 17.9723 41.4794 18.013 41.328L21.6929 27.6314C21.7305 27.4893 21.7232 27.339 21.6721 27.2011C21.6209 27.0633 21.5285 26.9446 21.4072 26.8614L15.3334 22.6981C15.2076 22.6122 15.1127 22.4883 15.0625 22.3445C15.0123 22.2007 15.0095 22.0445 15.0546 21.899C15.0996 21.7535 15.1901 21.6263 15.3128 21.536C15.4355 21.4457 15.5838 21.3971 15.7362 21.3974H28.8263C28.9356 21.3974 29.0435 21.4226 29.1416 21.4711C29.2396 21.5195 29.3253 21.5898 29.3918 21.6766C29.4584 21.7634 29.504 21.8644 29.5254 21.9716C29.5467 22.079 29.543 22.1897 29.5147 22.2953L27.2177 30.8436L24.2547 41.8601L22.7378 47.5095C22.6972 47.6614 22.6077 47.795 22.4832 47.8905C22.3588 47.986 22.2063 48.0377 22.0494 48.0377H8.62974C8.473 48.0382 8.32058 48.0894 8.19616 48.1849C8.07174 48.2804 7.98216 48.4141 7.94135 48.5655L7.91136 48.6787C7.88299 48.7844 7.87931 48.8953 7.90064 49.0025C7.92193 49.1096 7.96763 49.2107 8.03415 49.2973C8.10071 49.3844 8.18633 49.4548 8.28438 49.5032C8.38244 49.5512 8.49037 49.5768 8.59975 49.5768H23.0142C23.1712 49.5768 23.3237 49.5251 23.4481 49.4296C23.5727 49.3341 23.6621 49.2 23.7026 49.0486L23.9737 48.0377L25.633 41.8601L28.3774 31.6422L31.1293 21.3997L36.7358 0.529596C36.7722 0.392798 36.8485 0.269942 36.955 0.17667C37.0615 0.0833986 37.1933 0.0239325 37.3337 0.00584525C37.474 -0.012242 37.6166 0.0118679 37.7433 0.0751047C37.8699 0.138341 37.9749 0.237843 38.0448 0.360939L41.3897 6.21381C41.4827 6.37741 41.5076 6.57105 41.459 6.75291L37.5243 21.3982L32.0272 41.8601L30.3686 48.0377L29.9528 49.5768Z" fill="#E11D48"/>
</svg>
